<?xml version="1.0" standalone="no"?>
<!DOCTYPE svg PUBLIC "-//W3C//DTD SVG 20010904//EN"
 "http://www.w3.org/TR/2001/REC-SVG-20010904/DTD/svg10.dtd">
<svg version="1.0" xmlns="http://www.w3.org/2000/svg"
 width="459.000000pt" height="459.000000pt" viewBox="0 0 459.000000 459.000000"
 preserveAspectRatio="xMidYMid meet">
<metadata>
Created by potrace 1.11, written by Peter Selinger 2001-2013
</metadata>
<g transform="translate(0.000000,459.000000) scale(0.100000,-0.100000)"
fill="#000000" stroke="none">
<path d="M2103 4570 c-294 -29 -564 -105 -817 -232 -149 -75 -221 -119 -366
-227 -484 -359 -806 -920 -891 -1551 -14 -110 -14 -430 0 -540 59 -435 225
-828 491 -1165 139 -176 377 -385 581 -512 97 -61 291 -156 403 -197 128 -48
331 -99 481 -122 146 -21 455 -24 595 -5 521 71 971 290 1331 650 142 142 208
223 310 378 174 266 294 585 346 915 24 157 24 499 0 656 -52 330 -172 649
-346 915 -102 155 -168 236 -310 378 -353 353 -796 573 -1296 644 -128 19
-394 26 -512 15z m422 -1045 c267 -56 459 -193 561 -400 46 -94 69 -174 77
-262 l4 -53 -232 0 -232 0 -6 45 c-8 58 -48 135 -92 180 -81 81 -227 121 -405
112 -181 -9 -310 -76 -350 -183 -30 -78 -5 -198 52 -251 41 -39 106 -60 461
-147 191 -47 382 -97 425 -112 193 -64 333 -171 392 -296 90 -193 76 -465 -33
-652 -141 -243 -439 -376 -838 -376 -220 0 -405 39 -569 118 -80 38 -109 60
-180 131 -127 128 -188 261 -205 449 l-7 72 231 0 230 0 6 -37 c24 -136 86
-227 194 -283 151 -76 494 -68 637 15 133 78 176 250 88 355 -61 72 -136 100
-519 191 -440 106 -558 152 -671 265 -106 106 -154 238 -154 429 0 130 20 219
71 322 109 220 335 351 664 387 82 9 322 -3 400 -19z"/>
</g>
</svg>
